<svg width="65" height="40" viewBox="0 0 65 40" fill="none" xmlns="http://www.w3.org/2000/svg">
<path d="M24.207 0H21.5396C19.1962 0 17.3189 0.520756 15.9219 1.53665C14.5244 2.55682 13.3245 4.28987 12.3222 6.73145L9.35822 14.0604H6.67634C5.43421 14.0604 4.46014 14.3251 3.76864 14.8629C3.06306 15.4135 2.72415 16.1605 2.72415 17.1337C2.72415 18.4911 3.7123 19.1698 5.70227 19.1698H7.28331L0.606977 35.5693L0.493866 35.851C0.155376 36.7431 0 37.392 0 37.8017C0 38.4207 0.225804 38.9457 0.705581 39.3682C1.1717 39.7908 1.75008 40 2.42792 40C3.99445 40 5.2084 38.9286 6.08344 36.7858L13.24 19.1698H17.5447C18.801 19.1698 19.775 18.9008 20.4665 18.3758C21.1584 17.8422 21.511 17.0953 21.511 16.1477C21.511 14.7519 20.5233 14.0604 18.5329 14.0604H15.3008L17.5025 8.66502C18.0249 7.41008 18.6601 6.50521 19.4079 5.98446C20.1703 5.4509 21.2007 5.18195 22.5132 5.18195H23.2193C24.4755 5.18195 25.4491 4.91307 26.141 4.36244C26.8466 3.8118 27.1996 3.04773 27.1996 2.06171C27.1996 0.691528 26.1974 0 24.207 0Z" fill="currentcolor"/>
<path d="M29.9246 7.53821C29.2895 6.9022 28.5271 6.59056 27.6239 6.59056C26.7062 6.59056 25.9443 6.9022 25.3091 7.53821C24.674 8.17421 24.3632 8.93394 24.3632 9.83885C24.3632 10.7566 24.674 11.5164 25.3091 12.1524C25.9443 12.7884 26.7062 13.1 27.6239 13.1C28.5271 13.1 29.2895 12.7884 29.9246 12.1524C30.5598 11.5164 30.8701 10.7566 30.8701 9.83885C30.8701 8.93394 30.5598 8.17421 29.9246 7.53821ZM27.1723 26.8744H24.5327L27.8779 18.5765C28.3013 17.5435 28.513 16.7837 28.513 16.2886C28.513 15.6825 28.2732 15.1617 27.7934 14.722C27.3132 14.2824 26.7489 14.0604 26.0992 14.0604C24.5045 14.0604 23.3469 14.9482 22.6272 16.7111L22.3728 17.36L18.5056 26.8744C18.1808 27.6641 18.0117 28.33 18.0117 28.8379C18.0117 29.8111 18.4066 30.5751 19.1971 31.1386C19.9876 31.702 21.0603 31.9838 22.4437 31.9838H26.1701C27.4122 31.9838 28.3858 31.7148 29.0778 31.1813C29.7833 30.6562 30.1223 29.9093 30.1223 28.966C30.1223 27.5659 29.1341 26.8744 27.1723 26.8744Z" fill="currentcolor"/>
<path d="M45.1155 23.8267C44.5789 24.9707 43.9438 25.8329 43.2237 26.4091C42.7158 26.8317 42.0806 27.0452 41.3323 27.0452C41.3183 27.0452 41.3042 27.0452 41.3042 27.0452C39.7095 27.0324 38.7072 25.2652 39.2997 23.784L40.1611 21.6796C41.0502 19.4771 42.236 18.3758 43.718 18.3758C44.3813 18.3758 44.9038 18.5893 45.3127 19.0418C45.7225 19.4771 45.9197 20.0576 45.9197 20.7619C45.9197 21.6668 45.6516 22.6828 45.1155 23.8267ZM49.5334 15.7507C48.4039 14.4104 46.936 13.736 45.1296 13.736C44.5789 13.736 43.9579 13.847 43.2523 14.0604L47.1477 4.50325L47.4021 3.85448C47.6561 3.26116 47.7688 2.71054 47.7688 2.2282C47.7688 1.60927 47.543 1.07144 47.0632 0.648863C46.5834 0.226284 45.9905 3.8147e-06 45.2845 3.8147e-06C43.7602 3.8147e-06 42.6312 0.875044 41.8971 2.62512L41.6431 3.28674L31.8192 27.4805L31.5648 28.1165C31.3108 28.7227 31.1836 29.2605 31.1836 29.7257C31.1836 30.3617 31.4239 30.8825 31.8896 31.3222C32.3553 31.7575 32.9341 31.9838 33.5974 31.9838C35.009 31.9838 36.0394 31.4331 36.6887 30.3191C37.7895 31.4331 39.1025 31.9838 40.6549 31.9838H42.8711C44.0992 31.9838 45.2704 31.574 46.3858 30.7715C49.6038 28.4409 51.213 25.1969 51.213 21.018C51.213 18.8582 50.6483 17.1081 49.5334 15.7507Z" fill="currentcolor"/>
<path d="M63.0814 7.53821C62.4462 6.9022 61.6702 6.59056 60.7666 6.59056C59.8633 6.59056 59.0869 6.9022 58.4658 7.53821C57.8307 8.17421 57.5063 8.93394 57.5063 9.83885C57.5063 10.7566 57.8307 11.5164 58.4658 12.1524C59.0869 12.7884 59.8633 13.1 60.7666 13.1C61.6702 13.1 62.4462 12.7884 63.0814 12.1524C63.7024 11.5164 64.0273 10.7566 64.0273 9.83885C64.0273 8.93394 63.7024 8.17421 63.0814 7.53821ZM60.329 26.8744H57.6753L61.0205 18.5765C61.444 17.5435 61.6557 16.7837 61.6557 16.2886C61.6557 15.6825 61.4158 15.1617 60.9501 14.722C60.4703 14.2824 59.9056 14.0604 59.2423 14.0604C57.6472 14.0604 56.5041 14.9482 55.784 16.7111L55.5159 17.36L51.6623 26.8744C51.3238 27.6641 51.1685 28.33 51.1685 28.8379C51.1685 29.8111 51.5637 30.5751 52.3401 31.1386C53.1302 31.702 54.2174 31.9838 55.5863 31.9838H59.3127C60.5689 31.9838 61.543 31.7148 62.2345 31.1813C62.926 30.6562 63.279 29.9093 63.279 28.966C63.279 27.5659 62.2913 26.8744 60.329 26.8744Z" fill="currentcolor"/>
</svg>
