<svg width="20" height="20" viewBox="0 0 20 20" fill="none" xmlns="http://www.w3.org/2000/svg">
<path d="M13.4793 10.8334H4.16683C3.93072 10.8334 3.7328 10.7536 3.57308 10.5938C3.41336 10.4341 3.3335 10.2362 3.3335 10.0001C3.3335 9.76398 3.41336 9.56606 3.57308 9.40634C3.7328 9.24662 3.93072 9.16676 4.16683 9.16676H13.4793L9.396 5.08342C9.22933 4.91676 9.14947 4.72231 9.15641 4.50009C9.16336 4.27787 9.25016 4.08342 9.41683 3.91676C9.5835 3.76398 9.77794 3.68412 10.0002 3.67717C10.2224 3.67023 10.4168 3.75009 10.5835 3.91676L16.0835 9.41676C16.1668 9.50009 16.2259 9.59037 16.2606 9.68759C16.2953 9.78481 16.3127 9.88898 16.3127 10.0001C16.3127 10.1112 16.2953 10.2154 16.2606 10.3126C16.2259 10.4098 16.1668 10.5001 16.0835 10.5834L10.5835 16.0834C10.4307 16.2362 10.2397 16.3126 10.0106 16.3126C9.78141 16.3126 9.5835 16.2362 9.41683 16.0834C9.25016 15.9168 9.16683 15.7188 9.16683 15.4897C9.16683 15.2605 9.25016 15.0626 9.41683 14.8959L13.4793 10.8334Z" fill="currentcolor"/>
</svg>
