<svg viewBox="30 10 180 190" fill="none" xmlns="http://www.w3.org/2000/svg">
<g opacity="0.3">
<path d="M106.938 107.493H87.0125L112.131 45.1806C115.31 37.4445 116.9 31.7071 116.9 28.0154C116.9 23.4537 115.099 19.5268 111.601 16.2349C107.998 12.9664 103.759 11.2499 98.7767 11.2499C86.8001 11.2499 78.2157 17.9279 72.8103 31.1898L70.797 36.0571L41.8629 107.493C39.3196 113.442 38.1538 118.403 38.1538 122.236C38.1538 129.549 41.1208 135.262 46.9497 139.495C52.8851 143.751 61.046 145.867 71.327 145.867H99.3067C108.74 145.867 116.052 143.845 121.245 139.824C126.439 135.897 129.089 130.277 129.089 123.176C129.089 112.689 121.67 107.493 106.938 107.493Z" fill="#111318"/>
<path d="M137.255 102.507H157.18L132.062 164.842C128.883 172.578 127.292 178.292 127.292 182.007C127.292 186.569 129.094 190.496 132.592 193.764C136.195 197.056 140.434 198.749 145.416 198.749C157.392 198.749 165.977 192.071 171.382 178.833L173.396 173.942L202.33 102.507C204.873 96.5811 206.039 91.5961 206.039 87.7869C206.039 80.474 203.072 74.7602 197.243 70.5041C191.308 66.2716 183.147 64.1554 172.866 64.1554H144.886C135.454 64.1554 128.14 66.1541 122.947 70.1985C117.754 74.1018 115.104 79.7216 115.104 86.8228C115.104 97.3335 122.523 102.507 137.255 102.507Z" fill="#111822" fill-opacity="0.4"/>
</g>
</svg>
