<svg width="40" height="40" viewBox="0 0 40 40" fill="none" xmlns="http://www.w3.org/2000/svg">
<path d="M17.11 20.3987H13.922L17.941 10.4288C18.4496 9.19106 18.704 8.27308 18.704 7.68241C18.704 6.95254 18.4158 6.32424 17.8562 5.79753C17.2796 5.27458 16.6014 4.99993 15.8043 4.99993C13.888 4.99993 12.5145 6.06841 11.6497 8.19031L11.3275 8.96908L6.69807 20.3987C6.29115 21.3506 6.10461 22.1444 6.10461 22.7577C6.10461 23.9277 6.57933 24.8419 7.51195 25.5191C8.46161 26.2001 9.76737 26.5387 11.4123 26.5387H15.8891C17.3984 26.5387 18.5684 26.2152 19.3993 25.5718C20.2302 24.9435 20.6542 24.0443 20.6542 22.9081C20.6542 21.2302 19.4672 20.3987 17.11 20.3987Z" fill="currentcolor"/>
<g opacity="0.4">
<path d="M21.9608 19.6011H25.1488L21.1298 29.5748C20.6212 30.8125 20.3667 31.7267 20.3667 32.3212C20.3667 33.0511 20.655 33.6793 21.2146 34.2023C21.7912 34.729 22.4694 34.9999 23.2665 34.9999C25.1828 34.9999 26.5563 33.9314 27.4211 31.8133L27.7433 31.0307L32.3727 19.6011C32.7797 18.653 32.9662 17.8554 32.9662 17.2459C32.9662 16.0759 32.4915 15.1616 31.5588 14.4807C30.6092 13.8035 29.3034 13.4649 27.6585 13.4649H23.1817C21.6726 13.4649 20.5024 13.7847 19.6716 14.4318C18.8406 15.0563 18.4166 15.9555 18.4166 17.0917C18.4166 18.7734 19.6036 19.6011 21.9608 19.6011Z" fill="currentcolor"/>
</g>
</svg>
