<svg width="32" height="32" viewBox="0 0 32 32" fill="none" xmlns="http://www.w3.org/2000/svg">
<path d="M13.6881 16.3191H11.1377L14.3529 8.34319C14.7598 7.35297 14.9633 6.61858 14.9633 6.14605C14.9633 5.56215 14.7327 5.05951 14.285 4.63814C13.8238 4.21978 13.2812 4.00006 12.6435 4.00006C11.1105 4.00006 10.0117 4.85485 9.31982 6.55237L9.06212 7.17539L5.35855 16.3191C5.03301 17.0806 4.88379 17.7157 4.88379 18.2062C4.88379 19.1423 5.26356 19.8737 6.00966 20.4154C6.76939 20.9602 7.81399 21.2311 9.12996 21.2311H12.7114C13.9188 21.2311 14.8548 20.9722 15.5195 20.4576C16.1843 19.9549 16.5234 19.2356 16.5234 18.3266C16.5234 16.9843 15.5738 16.3191 13.6881 16.3191Z" fill="currentcolor"/>
<g opacity="0.4">
<path d="M17.5687 15.6811H20.1191L16.904 23.66C16.4971 24.6502 16.2934 25.3816 16.2934 25.8572C16.2934 26.4411 16.5241 26.9437 16.9718 27.3621C17.433 27.7834 17.9756 28.0001 18.6133 28.0001C20.1463 28.0001 21.2451 27.1454 21.937 25.4508L22.1947 24.8248L25.8983 15.6811C26.2239 14.9226 26.3731 14.2845 26.3731 13.797C26.3731 12.8609 25.9933 12.1295 25.2472 11.5848C24.4874 11.043 23.4428 10.7721 22.1269 10.7721H18.5455C17.3382 10.7721 16.4021 11.028 15.7373 11.5456C15.0726 12.0453 14.7334 12.7646 14.7334 13.6735C14.7334 15.0189 15.683 15.6811 17.5687 15.6811Z" fill="currentcolor"/>
</g>
</svg>
