<svg width="32" height="32" viewBox="0 0 32 32" fill="none" xmlns="http://www.w3.org/2000/svg">
<path d="M30.3332 23.333C30.3332 23.8797 29.8798 24.333 29.3332 24.333H19.9998V24.6663C19.9998 26.6663 18.7998 27.333 17.3332 27.333H9.33317C7.8665 27.333 6.6665 26.6663 6.6665 24.6663V24.333H2.6665C2.11984 24.333 1.6665 23.8797 1.6665 23.333C1.6665 22.7863 2.11984 22.333 2.6665 22.333H6.6665V21.9997C6.6665 19.9997 7.8665 19.333 9.33317 19.333H17.3332C18.7998 19.333 19.9998 19.9997 19.9998 21.9997V22.333H29.3332C29.8798 22.333 30.3332 22.7863 30.3332 23.333Z" fill="currentcolor"/>
<path opacity="0.4" d="M30.3332 8.66699C30.3332 9.21366 29.8798 9.66699 29.3332 9.66699H25.3332V10.0003C25.3332 12.0003 24.1332 12.667 22.6665 12.667H14.6665C13.1998 12.667 11.9998 12.0003 11.9998 10.0003V9.66699H2.6665C2.11984 9.66699 1.6665 9.21366 1.6665 8.66699C1.6665 8.12033 2.11984 7.66699 2.6665 7.66699H11.9998V7.33366C11.9998 5.33366 13.1998 4.66699 14.6665 4.66699H22.6665C24.1332 4.66699 25.3332 5.33366 25.3332 7.33366V7.66699H29.3332C29.8798 7.66699 30.3332 8.12033 30.3332 8.66699Z" fill="currentcolor"/>
</svg>
