<svg width="35" height="35" viewBox="0 0 35 35" fill="none" xmlns="http://www.w3.org/2000/svg">
<path d="M27.0264 21.6557C24.0329 21.6557 21.6084 24.0802 21.6084 27.0737C21.6084 28.0895 21.8929 29.0512 22.394 29.8639C23.3286 31.4352 25.0488 32.4917 27.0264 32.4917C29.004 32.4917 30.7241 31.4352 31.6587 29.8639C32.1599 29.0512 32.4444 28.0895 32.4444 27.0737C32.4444 24.0802 30.0198 21.6557 27.0264 21.6557ZM29.8302 26.4912L26.9451 29.1596C26.7555 29.3357 26.4981 29.4305 26.2543 29.4305C25.997 29.4305 25.7396 29.3357 25.5365 29.1325L24.1955 27.7916C23.8026 27.3987 23.8026 26.7486 24.1955 26.3558C24.5883 25.963 25.2384 25.963 25.6312 26.3558L26.2814 27.0059L28.4486 25.0013C28.8549 24.622 29.5051 24.6491 29.8844 25.0555C30.2636 25.4618 30.2366 26.0984 29.8302 26.4912Z" fill="currentcolor"/>
<path d="M31.09 11.5508V13.5284H4V11.5508C4 8.44898 6.5194 5.94316 9.6212 5.94316H25.4688C28.5706 5.94316 31.09 8.44898 31.09 11.5508Z" fill="currentcolor"/>
<path opacity="0.3" d="M4 13.5293V23.6338C4 26.7357 6.50584 29.2415 9.60764 29.2415H18.0868C18.8724 29.2415 19.5496 28.5778 19.4819 27.7922C19.2923 25.7198 19.956 23.4713 21.7981 21.6834C22.5566 20.9384 23.4912 20.3695 24.5071 20.0444C26.2002 19.5026 27.8391 19.5703 29.2884 20.058C30.1689 20.356 31.09 19.7193 31.09 18.7847V13.5293H4ZM12.127 24.7039H9.41799C8.86265 24.7039 8.40212 24.2434 8.40212 23.688C8.40212 23.1327 8.86265 22.6722 9.41799 22.6722H12.127C12.6823 22.6722 13.1429 23.1327 13.1429 23.688C13.1429 24.2434 12.6823 24.7039 12.127 24.7039Z" fill="currentcolor"/>
<path d="M13.1426 23.6882C13.1426 24.2436 12.6821 24.7041 12.1267 24.7041H9.41773C8.86238 24.7041 8.40186 24.2436 8.40186 23.6882C8.40186 23.1329 8.86238 22.6723 9.41773 22.6723H12.1267C12.6821 22.6723 13.1426 23.1329 13.1426 23.6882Z" fill="currentcolor"/>
</svg>
