<svg width="32" height="32" viewBox="0 0 32 32" fill="none" xmlns="http://www.w3.org/2000/svg">
<path opacity="0.3" d="M24.4489 3.33301H22.0422C19.2809 3.33301 17.8242 4.78967 17.8242 7.55101V9.95767C17.8242 12.719 19.2809 14.1757 22.0422 14.1757H24.4489C27.2102 14.1757 28.6669 12.719 28.6669 9.95767V7.55101C28.6669 4.78967 27.2102 3.33301 24.4489 3.33301Z" fill="currentcolor"/>
<path opacity="0.3" d="M9.97083 17.8115H7.56416C4.79016 17.8115 3.3335 19.2682 3.3335 22.0295V24.4362C3.3335 27.2102 4.79016 28.6669 7.5515 28.6669H9.95816C12.7195 28.6669 14.1762 27.2102 14.1762 24.4489V22.0422C14.1888 19.2682 12.7322 17.8115 9.97083 17.8115Z" fill="currentcolor"/>
<path d="M8.7675 14.201C11.7686 14.201 14.2015 11.7681 14.2015 8.76701C14.2015 5.76589 11.7686 3.33301 8.7675 3.33301C5.76638 3.33301 3.3335 5.76589 3.3335 8.76701C3.3335 11.7681 5.76638 14.201 8.7675 14.201Z" fill="currentcolor"/>
<path d="M23.2328 28.6659C26.2339 28.6659 28.6668 26.233 28.6668 23.2318C28.6668 20.2307 26.2339 17.7979 23.2328 17.7979C20.2317 17.7979 17.7988 20.2307 17.7988 23.2318C17.7988 26.233 20.2317 28.6659 23.2328 28.6659Z" fill="currentcolor"/>
</svg>
