<svg width="20" height="20" viewBox="0 0 20 20" fill="none" xmlns="http://www.w3.org/2000/svg">
<path d="M7.77581 12.861L15.4706 5.16618C15.6522 4.98459 15.8641 4.8938 16.1062 4.8938C16.3483 4.8938 16.5602 4.98459 16.7418 5.16618C16.9233 5.34777 17.0141 5.56341 17.0141 5.81309C17.0141 6.06278 16.9233 6.27841 16.7418 6.46L8.41138 14.8131C8.22979 14.9947 8.01793 15.0855 7.77581 15.0855C7.5337 15.0855 7.32184 14.9947 7.14025 14.8131L3.2361 10.9089C3.05451 10.7273 2.9675 10.5117 2.97506 10.262C2.98263 10.0123 3.07721 9.79669 3.2588 9.6151C3.44038 9.43352 3.65602 9.34272 3.90571 9.34272C4.15539 9.34272 4.37103 9.43352 4.55262 9.6151L7.77581 12.861Z" fill="currentcolor"/>
</svg>
