<svg width="20" height="20" viewBox="0 0 20 20" fill="none" xmlns="http://www.w3.org/2000/svg">
<path d="M9.99999 11.2422L5.65271 15.5894C5.49006 15.7521 5.28305 15.8334 5.03168 15.8334C4.7803 15.8334 4.57329 15.7521 4.41064 15.5894C4.24798 15.4268 4.16666 15.2198 4.16666 14.9684C4.16666 14.717 4.24798 14.51 4.41064 14.3474L8.75791 10.0001L4.41064 5.65281C4.24798 5.49015 4.16666 5.28314 4.16666 5.03177C4.16666 4.78039 4.24798 4.57338 4.41064 4.41073C4.57329 4.24807 4.7803 4.16675 5.03168 4.16675C5.28305 4.16675 5.49006 4.24807 5.65271 4.41073L9.99999 8.758L14.3473 4.41073C14.5099 4.24807 14.7169 4.16675 14.9683 4.16675C15.2197 4.16675 15.4267 4.24807 15.5893 4.41073C15.752 4.57338 15.8333 4.78039 15.8333 5.03177C15.8333 5.28314 15.752 5.49015 15.5893 5.65281L11.2421 10.0001L15.5893 14.3474C15.752 14.51 15.8333 14.717 15.8333 14.9684C15.8333 15.2198 15.752 15.4268 15.5893 15.5894C15.4267 15.7521 15.2197 15.8334 14.9683 15.8334C14.7169 15.8334 14.5099 15.7521 14.3473 15.5894L9.99999 11.2422Z" fill="#16191D"/>
</svg>
