<svg width="20" height="20" viewBox="0 0 20 20" fill="none" xmlns="http://www.w3.org/2000/svg">
<path d="M8.25156 15.3999C7.75656 15.3999 7.33281 15.2236 6.98031 14.8711C6.62781 14.5186 6.45156 14.0949 6.45156 13.5999V2.79988C6.45156 2.30488 6.62781 1.88113 6.98031 1.52863C7.33281 1.17613 7.75656 0.999878 8.25156 0.999878H16.3516C16.8466 0.999878 17.2703 1.17613 17.6228 1.52863C17.9753 1.88113 18.1516 2.30488 18.1516 2.79988V13.5999C18.1516 14.0949 17.9753 14.5186 17.6228 14.8711C17.2703 15.2236 16.8466 15.3999 16.3516 15.3999H8.25156ZM8.25156 13.5999H16.3516V2.79988H8.25156V13.5999ZM4.65156 18.9999C4.15656 18.9999 3.73281 18.8236 3.38031 18.4711C3.02781 18.1186 2.85156 17.6949 2.85156 17.1999V5.49988C2.85156 5.24488 2.93781 5.03113 3.11031 4.85863C3.28281 4.68613 3.49656 4.59988 3.75156 4.59988C4.00656 4.59988 4.22031 4.68613 4.39281 4.85863C4.56531 5.03113 4.65156 5.24488 4.65156 5.49988V17.1999H13.6516C13.9066 17.1999 14.1203 17.2861 14.2928 17.4586C14.4653 17.6311 14.5516 17.8449 14.5516 18.0999C14.5516 18.3549 14.4653 18.5686 14.2928 18.7411C14.1203 18.9136 13.9066 18.9999 13.6516 18.9999H4.65156Z" fill="currentcolor"/>
</svg>
