<svg width="40" height="40" viewBox="0 0 40 40" fill="none" xmlns="http://www.w3.org/2000/svg">
<path opacity="0.3" d="M35.1339 14.3001V25.7C35.1339 27.5667 34.1339 29.3001 32.5173 30.2501L22.6173 35.9667C21.0006 36.9001 19.0006 36.9001 17.3673 35.9667L7.46725 30.2501C5.85059 29.3167 4.85059 27.5833 4.85059 25.7V14.3001C4.85059 12.4334 5.85059 10.7 7.46725 9.74999L17.3673 4.03334C18.9839 3.1 20.9839 3.1 22.6173 4.03334L32.5173 9.74999C34.1339 10.7 35.1339 12.4167 35.1339 14.3001Z" fill="currentcolor" />
<path d="M19.9995 20.0001C22.1442 20.0001 23.8829 18.2614 23.8829 16.1167C23.8829 13.972 22.1442 12.2335 19.9995 12.2335C17.8548 12.2335 16.1162 13.972 16.1162 16.1167C16.1162 18.2614 17.8548 20.0001 19.9995 20.0001Z" fill="currentcolor" />
<path d="M24.4673 27.7666C25.8173 27.7666 26.6006 26.2667 25.8506 25.15C24.7173 23.4667 22.5173 22.3334 20.0006 22.3334C17.4839 22.3334 15.2839 23.4667 14.1506 25.15C13.4006 26.2667 14.1839 27.7666 15.5339 27.7666H24.4673Z" fill="currentcolor" />
</svg>
