<svg width="40" height="40" viewBox="0 0 40 40" fill="none" xmlns="http://www.w3.org/2000/svg">
<path d="M23.5827 36.6668H16.4493C13.8993 36.6668 11.9993 34.6001 12.4827 32.3835L13.6493 27.2501H26.3827L27.5493 32.3835C28.0827 34.7335 26.2993 36.6668 23.5827 36.6668Z" fill="currentcolor"/>
<path opacity="0.3" d="M31.2836 22.8998L26.3836 27.2498H13.6502L8.75022 22.8998C5.90022 20.5665 5.90022 18.7665 8.06689 16.0165L16.7169 5.06651C17.3169 4.31651 18.0169 3.79985 18.7669 3.53318C19.5836 3.24985 20.4502 3.24985 21.2669 3.53318C22.0169 3.79985 22.7169 4.31651 23.3169 5.06651L31.9669 16.0165C34.1336 18.7665 34.0336 20.4665 31.2836 22.8998Z" fill="currentcolor"/>
<path d="M21.2666 3.53318V11.6165C21.2666 12.2998 20.6999 12.8665 20.0166 12.8665C19.3333 12.8665 18.7666 12.2998 18.7666 11.6165V3.53318C19.5833 3.24985 20.4499 3.24985 21.2666 3.53318Z" fill="currentcolor"/>
</svg>
