<svg width="32" height="32" viewBox="0 0 32 32" fill="none" xmlns="http://www.w3.org/2000/svg">
<path opacity="0.3" d="M23.0593 28H8.94164C4.70634 28 1.88281 25.8824 1.88281 20.9412V11.0588C1.88281 6.11765 4.70634 4 8.94164 4H23.0593C27.2946 4 30.1181 6.11765 30.1181 11.0588V20.9412C30.1181 25.8824 27.2946 28 23.0593 28Z" fill="currentcolor"/>
<path d="M16.0023 17.2281C14.8164 17.2281 13.6165 16.8611 12.6988 16.1128L8.27997 12.5834C7.82821 12.2164 7.74351 11.5528 8.11057 11.1011C8.47763 10.6493 9.14116 10.5646 9.59293 10.9317L14.0117 14.4611C15.0847 15.3222 16.9059 15.3222 17.9788 14.4611L22.3976 10.9317C22.8494 10.5646 23.527 10.6352 23.88 11.1011C24.247 11.5528 24.1765 12.2305 23.7106 12.5834L19.2917 16.1128C18.3882 16.8611 17.1882 17.2281 16.0023 17.2281Z" fill="currentcolor"/>
</svg>
