<svg width="20" height="20" viewBox="0 0 20 20" fill="none" xmlns="http://www.w3.org/2000/svg">
<path fill-rule="evenodd" clip-rule="evenodd" d="M18.803 9.97796V10.8768C18.803 11.8764 18.8054 12.87 18.7478 13.8708C18.6818 15.2148 18.3782 16.4064 17.3918 17.3916C16.4078 18.3756 15.215 18.6828 13.8698 18.7476C12.8534 18.8052 11.843 18.804 10.8278 18.8028H9.97935C8.96424 18.8136 7.94901 18.7952 6.93495 18.7476C5.59095 18.6828 4.39935 18.378 3.41415 17.3916C2.43015 16.4076 2.12295 15.2148 2.05815 13.8696C2.01065 12.8563 1.99225 11.8419 2.00295 10.8276V9.98036C2.00295 8.96516 2.00055 7.95476 2.05815 6.93716C2.12295 5.59196 2.42775 4.40036 3.41415 3.41516C4.39815 2.43116 5.59095 2.12396 6.93495 2.05916C7.9486 2.01121 8.96342 1.9924 9.97815 2.00276H10.8266C11.8418 2.00276 12.8522 2.00036 13.8698 2.05796C15.215 2.12276 16.4066 2.42756 17.3918 3.41396C18.3758 4.39796 18.6818 5.59076 18.7478 6.93596C18.8042 7.95236 18.803 8.96156 18.803 9.97796ZM7.59975 10.4028C7.59975 8.86076 8.85855 7.60196 10.4006 7.60196C11.9426 7.60196 13.2014 8.86076 13.2014 10.4028C13.2014 11.9448 11.9426 13.2036 10.4006 13.2036C8.85855 13.2036 7.59975 11.9448 7.59975 10.4028ZM10.4006 14.7132C8.01615 14.7132 6.09015 12.7884 6.09015 10.4028C6.09015 8.01716 8.01495 6.09236 10.4006 6.09236C12.7862 6.09236 14.711 8.01716 14.711 10.4028C14.711 12.7884 12.7862 14.7132 10.4006 14.7132ZM13.8806 5.91716C13.8806 6.18418 13.9866 6.44026 14.1754 6.62907C14.3643 6.81789 14.6203 6.92396 14.8874 6.92396C15.1544 6.92396 15.4105 6.81789 15.5993 6.62907C15.7881 6.44026 15.8942 6.18418 15.8942 5.91716C15.8942 5.65014 15.7881 5.39406 15.5993 5.20524C15.4105 5.01643 15.1544 4.91036 14.8874 4.91036C14.6203 4.91036 14.3643 5.01643 14.1754 5.20524C13.9866 5.39406 13.8806 5.65014 13.8806 5.91716Z" fill="currentcolor"/>
</svg>
