<svg width="32" height="32" viewBox="0 0 32 32" fill="none" xmlns="http://www.w3.org/2000/svg">
<path d="M25.8267 6.52016L18.0134 3.04016C16.8667 2.53349 15.1334 2.53349 13.9867 3.04016L6.17341 6.52016C4.20007 7.40016 3.90674 8.60016 3.90674 9.24016C3.90674 9.88016 4.20007 11.0802 6.17341 11.9602L13.9867 15.4402C14.5601 15.6935 15.2801 15.8268 16.0001 15.8268C16.7201 15.8268 17.4401 15.6935 18.0134 15.4402L25.8267 11.9602C27.8001 11.0802 28.0934 9.88016 28.0934 9.24016C28.0934 8.60016 27.8134 7.40016 25.8267 6.52016Z" fill="currentcolor"/>
<path opacity="0.4" d="M15.9999 22.7203C15.4933 22.7203 14.9866 22.6137 14.5199 22.4137L5.53326 18.4137C4.15993 17.8003 3.09326 16.1603 3.09326 14.6537C3.09326 14.107 3.53326 13.667 4.07993 13.667C4.6266 13.667 5.0666 14.107 5.0666 14.6537C5.0666 15.3737 5.6666 16.307 6.33326 16.6003L15.3199 20.6003C15.7466 20.787 16.2399 20.787 16.6666 20.6003L25.6533 16.6003C26.3199 16.307 26.9199 15.387 26.9199 14.6537C26.9199 14.107 27.3599 13.667 27.9066 13.667C28.4533 13.667 28.8933 14.107 28.8933 14.6537C28.8933 16.147 27.8266 17.8003 26.4533 18.4137L17.4666 22.4137C17.0133 22.6137 16.5066 22.7203 15.9999 22.7203Z" fill="currentcolor"/>
<path opacity="0.4" d="M15.9999 29.3336C15.4933 29.3336 14.9866 29.2269 14.5199 29.0269L5.53326 25.0269C4.05326 24.3736 3.09326 22.8936 3.09326 21.2669C3.09326 20.7203 3.53326 20.2803 4.07993 20.2803C4.6266 20.2803 5.0666 20.7203 5.0666 21.2669C5.0666 22.1069 5.55993 22.8669 6.33326 23.2136L15.3199 27.2136C15.7466 27.4003 16.2399 27.4003 16.6666 27.2136L25.6533 23.2136C26.4133 22.8803 26.9199 22.1069 26.9199 21.2669C26.9199 20.7203 27.3599 20.2803 27.9066 20.2803C28.4533 20.2803 28.8933 20.7203 28.8933 21.2669C28.8933 22.8936 27.9333 24.3603 26.4533 25.0269L17.4666 29.0269C17.0133 29.2269 16.5066 29.3336 15.9999 29.3336Z" fill="currentcolor"/>
</svg>
