<svg width="20" height="20" viewBox="0 0 20 20" fill="none" xmlns="http://www.w3.org/2000/svg">
<path d="M4.4 2C3.76348 2 3.15303 2.25286 2.70294 2.70294C2.25286 3.15303 2 3.76348 2 4.4V16.4C2 17.0365 2.25286 17.647 2.70294 18.0971C3.15303 18.5471 3.76348 18.8 4.4 18.8H16.4C17.0365 18.8 17.647 18.5471 18.0971 18.0971C18.5471 17.647 18.8 17.0365 18.8 16.4V4.4C18.8 3.76348 18.5471 3.15303 18.0971 2.70294C17.647 2.25286 17.0365 2 16.4 2H4.4ZM7.4004 15.2996H5.3004V7.6004H7.4004V15.2996ZM6.3504 6.7124C5.6736 6.7124 5.1252 6.1604 5.1252 5.4776C5.1252 4.796 5.6736 4.2428 6.3492 4.2428C7.026 4.2428 7.5744 4.7948 7.5744 5.4776C7.5744 6.1592 7.0272 6.7124 6.3504 6.7124ZM15.8004 15.2996H13.7004V11.3768C13.7004 9.02 10.8996 9.1976 10.8996 11.3768V15.3008H8.7996V7.5992H10.8996V8.8352C11.8776 7.0232 15.8004 6.8912 15.8004 10.568V15.2996Z" fill="currentcolor"/>
</svg>
