<svg width="56" height="57" viewBox="0 0 56 57" fill="none" xmlns="http://www.w3.org/2000/svg">
<path opacity="0.3" d="M51.3327 17.8367V31.8367C51.3327 35.3367 50.166 38.2533 48.1127 40.3067C46.0827 42.3367 43.166 43.5033 39.666 43.5033V48.4733C39.666 50.34 37.5894 51.4601 36.0494 50.4334L25.666 43.5033H20.7194C20.906 42.8033 20.9994 42.08 20.9994 41.3333C20.9994 38.9533 20.0894 36.76 18.596 35.1034C16.916 33.19 14.4193 32 11.666 32C9.05268 32 6.67269 33.0734 4.96936 34.8234C4.75936 33.8901 4.66602 32.8867 4.66602 31.8367V17.8367C4.66602 10.8366 9.33268 6.16998 16.3327 6.16998H39.666C46.666 6.16998 51.3327 10.8366 51.3327 17.8367Z" fill="currentcolor"/>
<path d="M36.1654 26.75H19.832C18.8754 26.75 18.082 25.9567 18.082 25C18.082 24.0433 18.8754 23.25 19.832 23.25H36.1654C37.122 23.25 37.9154 24.0433 37.9154 25C37.9154 25.9567 37.122 26.75 36.1654 26.75Z" fill="currentcolor"/>
<path d="M11.6673 32C6.51065 32 2.33398 36.1767 2.33398 41.3333C2.33398 43.0833 2.82395 44.74 3.68729 46.14C5.29729 48.8467 8.26065 50.6667 11.6673 50.6667C15.074 50.6667 18.0374 48.8467 19.6474 46.14C20.5107 44.74 21.0007 43.0833 21.0007 41.3333C21.0007 36.1767 16.824 32 11.6673 32ZM16.264 40.5633L11.294 45.16C10.9673 45.4634 10.524 45.6267 10.104 45.6267C9.66062 45.6267 9.21729 45.4633 8.86729 45.1133L6.55731 42.8033C5.88065 42.1267 5.88065 41.0067 6.55731 40.33C7.23398 39.6534 8.35397 39.6534 9.03064 40.33L10.1507 41.45L13.884 37.9967C14.584 37.3434 15.704 37.39 16.3573 38.09C17.0107 38.79 16.964 39.91 16.264 40.5633Z" fill="currentcolor"/>
</svg>
