<svg width="48" height="48" viewBox="0 0 48 48" fill="none" xmlns="http://www.w3.org/2000/svg">
<path opacity="0.4" d="M44 12.5V22.7C44 25.24 43.16 27.38 41.66 28.86C40.18 30.36 38.04 31.2 35.5 31.2V34.82C35.5 36.18 33.98 37 32.86 36.24L30.92 34.96C31.1 34.34 31.18 33.6599 31.18 32.9399V24.8001C31.18 20.7201 28.46 18 24.38 18H10.8C10.52 18 10.26 18.02 10 18.04V12.5C10 7.4 13.4 4 18.5 4H35.5C40.6 4 44 7.4 44 12.5Z" fill="currentcolor"/>
<path d="M31.18 24.8V32.9399C31.18 33.6599 31.1 34.34 30.92 34.96C30.18 37.9 27.74 39.74 24.38 39.74H18.94L12.9 43.76C12 44.38 10.8 43.72 10.8 42.64V39.74C8.75999 39.74 7.06001 39.06 5.88001 37.88C4.68 36.68 4 34.9799 4 32.9399V24.8C4 21 6.36 18.38 10 18.04C10.26 18.02 10.52 18 10.8 18H24.38C28.46 18 31.18 20.72 31.18 24.8Z" fill="currentcolor"/>
</svg>
