<svg width="40" height="40" viewBox="0 0 40 40" fill="none" xmlns="http://www.w3.org/2000/svg">
<path opacity="0.4" d="M16.6497 29.9666C24.0043 29.9666 29.9663 24.0045 29.9663 16.6499C29.9663 9.29533 24.0043 3.33325 16.6497 3.33325C9.29508 3.33325 3.33301 9.29533 3.33301 16.6499C3.33301 24.0045 9.29508 29.9666 16.6497 29.9666Z" fill="currentcolor"/>
<path d="M36.6168 26.6501C36.6168 32.1501 32.1501 36.6168 26.6501 36.6168C23.2501 36.6168 20.2668 34.9168 18.4668 32.3335C25.7335 31.5168 31.5168 25.7335 32.3335 18.4668C34.9168 20.2668 36.6168 23.2501 36.6168 26.6501Z" fill="currentcolor"/>
<path d="M19.083 16.1836L15.083 14.7836C14.683 14.6503 14.5997 14.6169 14.5997 14.0336C14.5997 13.6003 14.8997 13.2503 15.283 13.2503H17.783C18.3163 13.2503 18.7497 13.7336 18.7497 14.3336C18.7497 15.0169 19.3163 15.5836 19.9997 15.5836C20.683 15.5836 21.2497 15.0169 21.2497 14.3336C21.2497 12.4169 19.7663 10.8503 17.9163 10.7669V10.6836C17.9163 10.0003 17.3497 9.43359 16.6663 9.43359C15.983 9.43359 15.4163 9.98359 15.4163 10.6836V10.7669H15.2663C13.5163 10.7669 12.083 12.2336 12.083 14.0503C12.083 15.6336 12.783 16.6503 14.233 17.1503L18.2497 18.5503C18.6497 18.6836 18.733 18.7169 18.733 19.3003C18.733 19.7336 18.433 20.0836 18.0497 20.0836H15.5497C15.0163 20.0836 14.583 19.6003 14.583 19.0003C14.583 18.3169 14.0163 17.7503 13.333 17.7503C12.6497 17.7503 12.083 18.3169 12.083 19.0003C12.083 20.9169 13.5663 22.4836 15.4163 22.5669V22.6669C15.4163 23.3503 15.983 23.9169 16.6663 23.9169C17.3497 23.9169 17.9163 23.3503 17.9163 22.6669V22.5836H18.0663C19.8163 22.5836 21.2497 21.1169 21.2497 19.3003C21.2497 17.7169 20.533 16.7003 19.083 16.1836Z" fill="currentcolor"/>
</svg>
