<svg width="32" height="32" viewBox="0 0 32 32" fill="none" xmlns="http://www.w3.org/2000/svg">
<path opacity="0.3" d="M22.3997 2.66699H8.27969C5.18635 2.66699 2.67969 5.17366 2.67969 8.25366V16.4937V16.747C2.67969 19.8403 5.18635 22.3337 8.26635 22.3337H13.0664C13.9048 22.3337 16.8012 22.3337 17.6397 22.3337H22.3997C25.493 22.3337 27.9864 19.827 27.9864 16.747V16.4937V8.25366C27.9864 5.17366 25.4797 2.66699 22.3997 2.66699Z" fill="currentcolor"/>
<path d="M26.1868 12.667H19.1335C16.8268 12.667 15.9868 13.507 15.9868 15.8403V26.147C15.9868 28.4937 16.8135 29.3203 19.1335 29.3203H26.1868C28.4935 29.3203 29.3335 28.4803 29.3335 26.147V15.8403C29.3335 13.4937 28.5068 12.667 26.1868 12.667ZM22.6668 27.0937C21.8535 27.0937 21.2001 26.4403 21.2001 25.627C21.2001 24.8137 21.8535 24.1603 22.6668 24.1603C23.4802 24.1603 24.1335 24.8137 24.1335 25.627C24.1335 26.4403 23.4802 27.0937 22.6668 27.0937Z" fill="currentcolor"/>
<path opacity="0.4" d="M24.133 25.6268C24.133 26.4402 23.4797 27.0935 22.6664 27.0935C21.853 27.0935 21.1997 26.4402 21.1997 25.6268C21.1997 24.8135 21.853 24.1602 22.6664 24.1602C23.4797 24.1602 24.133 24.8268 24.133 25.6268Z" fill="currentcolor"/>
</svg>
