<svg width="24" height="24" viewBox="0 0 24 24" fill="none" xmlns="http://www.w3.org/2000/svg">
<path opacity="0.4" d="M22.0004 9V16.46C22.0004 18.75 20.1404 20.6 17.8504 20.6H6.40039L9.97039 17.03L11.2504 15.75L18.0004 9H22.0004Z" fill="currentcolor"/>
<path opacity="0.4" d="M15 9L4 20C2.8 19.28 2 17.96 2 16.46V9H15Z" fill="currentcolor"/>
<path d="M22 7.54003V9.00003H18L21.47 5.53003C21.81 6.12003 22 6.81003 22 7.54003Z" fill="currentcolor"/>
<path d="M20 4.00002L15 9.00002H2V7.54002C2 5.25002 3.86 3.40002 6.15 3.40002H17.85C18.64 3.40002 19.37 3.62002 20 4.00002Z" fill="currentcolor"/>
<path d="M8.21 15.79L6.75 17.25H6C5.59 17.25 5.25 16.91 5.25 16.5C5.25 16.09 5.59 15.75 6 15.75H8C8.07 15.75 8.14 15.76 8.21 15.79Z" fill="currentcolor"/>
<path d="M15.2507 16.5C15.2507 16.91 14.9107 17.25 14.5007 17.25H10.5007C10.3007 17.25 10.1107 17.16 9.9707 17.03L11.2507 15.75H14.5007C14.9107 15.75 15.2507 16.09 15.2507 16.5Z" fill="currentcolor"/>
<path d="M21.7709 2.23C21.4709 1.93 20.9809 1.93 20.6809 2.23L2.23086 20.69C1.93086 20.99 1.93086 21.48 2.23086 21.78C2.38086 21.92 2.57086 22 2.77086 22C2.97086 22 3.16086 21.92 3.31086 21.77L21.7709 3.31C22.0809 3.01 22.0809 2.53 21.7709 2.23Z" fill="currentcolor"/>
</svg>
