<svg width="32" height="32" viewBox="0 0 32 32" fill="none" xmlns="http://www.w3.org/2000/svg">
<path opacity="0.4" d="M15.7203 18.9467L11.3603 23.3067C10.8803 22.88 10.4137 22.44 9.96033 21.9867C8.58699 20.6 7.34699 19.1467 6.24033 17.6267C5.14699 16.1067 4.26699 14.5867 3.62699 13.08C2.98699 11.56 2.66699 10.1067 2.66699 8.71999C2.66699 7.81332 2.82699 6.94666 3.14699 6.14666C3.46699 5.33332 3.97366 4.58666 4.68033 3.91999C5.53366 3.07999 6.46699 2.66666 7.45366 2.66666C7.82699 2.66666 8.20033 2.74666 8.53366 2.90666C8.88033 3.06666 9.18699 3.30666 9.42699 3.65332L12.5203 8.01332C12.7603 8.34666 12.9337 8.65332 13.0537 8.94666C13.1737 9.22666 13.2403 9.50666 13.2403 9.75999C13.2403 10.08 13.147 10.4 12.9603 10.7067C12.787 11.0133 12.5337 11.3333 12.2137 11.6533L11.2003 12.7067C11.0537 12.8533 10.987 13.0267 10.987 13.24C10.987 13.3467 11.0003 13.44 11.027 13.5467C11.067 13.6533 11.107 13.7333 11.1337 13.8133C11.3737 14.2533 11.787 14.8267 12.3737 15.52C12.9737 16.2133 13.6137 16.92 14.307 17.6267C14.787 18.0933 15.2537 18.5467 15.7203 18.9467Z" fill="currentcolor"/>
<path d="M29.2931 24.4401C29.2931 24.8134 29.2265 25.2001 29.0931 25.5734C29.0531 25.6801 29.0131 25.7867 28.9598 25.8934C28.7331 26.3734 28.4398 26.8267 28.0531 27.2534C27.3998 27.9734 26.6798 28.4934 25.8665 28.8267C25.8531 28.8267 25.8398 28.8401 25.8265 28.8401C25.0398 29.1601 24.1865 29.3334 23.2665 29.3334C21.9065 29.3334 20.4531 29.0134 18.9198 28.3601C17.3865 27.7067 15.8531 26.8267 14.3331 25.7201C13.8131 25.3334 13.2931 24.9467 12.7998 24.5334L17.1598 20.1734C17.5331 20.4534 17.8665 20.6667 18.1465 20.8134C18.2131 20.8401 18.2931 20.8801 18.3865 20.9201C18.4931 20.9601 18.5998 20.9734 18.7198 20.9734C18.9465 20.9734 19.1198 20.8934 19.2665 20.7467L20.2798 19.7467C20.6131 19.4134 20.9331 19.1601 21.2398 19.0001C21.5465 18.8134 21.8531 18.7201 22.1865 18.7201C22.4398 18.7201 22.7065 18.7734 22.9998 18.8934C23.2931 19.0134 23.5998 19.1867 23.9331 19.4134L28.3465 22.5467C28.6931 22.7867 28.9331 23.0667 29.0798 23.4001C29.2131 23.7334 29.2931 24.0667 29.2931 24.4401Z" fill="currentcolor"/>
</svg>
