<svg width="40" height="40" viewBox="0 0 40 40" fill="none" xmlns="http://www.w3.org/2000/svg">
<path d="M36.1179 11.5831C35.0512 7.96643 32.0346 4.94977 28.4179 3.8831C25.6679 3.0831 23.7679 3.14977 22.4512 4.1331C20.8679 5.31644 20.6846 7.44977 20.6846 8.96644V13.1164C20.6846 17.2164 22.5512 19.2998 26.2179 19.2998H31.0012C32.5012 19.2998 34.6512 19.1164 35.8346 17.5331C36.8512 16.2331 36.9346 14.3331 36.1179 11.5831Z" fill="currentcolor"/>
<path opacity="0.4" d="M31.518 22.2664C31.0846 21.7664 30.4513 21.4831 29.8013 21.4831H23.8346C20.9013 21.4831 18.518 19.0998 18.518 16.1664V10.1998C18.518 9.54976 18.2346 8.91643 17.7346 8.4831C17.2513 8.04976 16.5846 7.84976 15.9513 7.9331C12.0346 8.4331 8.43463 10.5831 6.08463 13.8164C3.71796 17.0664 2.8513 21.0331 3.6013 24.9998C4.68463 30.7331 9.26796 35.3164 15.018 36.3998C15.9346 36.5831 16.8513 36.6664 17.768 36.6664C20.7846 36.6664 23.7013 35.7331 26.1846 33.9164C29.418 31.5664 31.568 27.9664 32.068 24.0498C32.1513 23.3998 31.9513 22.7498 31.518 22.2664Z" fill="currentcolor"/>
</svg>
