<svg width="40" height="40" viewBox="0 0 40 40" fill="none" xmlns="http://www.w3.org/2000/svg">
<path opacity="0.3" d="M26.983 3.33325H13.033C6.94969 3.33325 3.33301 6.94992 3.33301 13.0166V26.9666C3.33301 33.0333 6.94967 36.6499 13.0163 36.6499H26.9663C33.033 36.6499 36.6497 33.0333 36.6497 26.9666V13.0166C36.6663 6.94992 33.0497 3.33325 26.983 3.33325Z" fill="currentcolor"/>
<path d="M30.0003 18.7834C29.3003 18.7834 28.7503 19.3334 28.7503 20.0334C28.7337 22.3668 27.8337 24.5501 26.2003 26.1834C24.5503 27.8334 22.3504 28.7501 20.017 28.7501C17.6837 28.7501 15.4836 27.8334 13.8336 26.1834C13.7836 26.1334 13.7503 26.0834 13.7003 26.0334H15.0836C15.767 26.0334 16.3336 25.4668 16.3336 24.7834C16.3336 24.1001 15.767 23.5334 15.0836 23.5334H10.667C9.98366 23.5334 9.41699 24.1001 9.41699 24.7834V29.2001C9.41699 29.8834 9.98366 30.4501 10.667 30.4501C11.3503 30.4501 11.917 29.8834 11.917 29.2001V27.7834C11.967 27.8334 12.017 27.9001 12.067 27.9668C14.1837 30.0834 17.017 31.2668 20.017 31.2668C23.017 31.2668 25.8503 30.1001 27.967 27.9668C30.067 25.8668 31.2337 23.0501 31.2503 20.0501C31.2503 19.3501 30.6837 18.8001 30.0003 18.7834Z" fill="currentcolor"/>
<path d="M10.0004 21.0833C10.6837 21.0833 11.2337 20.5333 11.2504 19.85C11.2837 17.5667 12.2004 15.4167 13.8004 13.8C15.4504 12.15 17.6504 11.2333 19.9837 11.2333C22.317 11.2333 24.5171 12.15 26.1671 13.8C26.2171 13.85 26.2504 13.9 26.3004 13.95H24.9171C24.2337 13.95 23.6671 14.5167 23.6671 15.2C23.6671 15.8833 24.2337 16.45 24.9171 16.45H29.3337C30.017 16.45 30.5837 15.8833 30.5837 15.2V10.8C30.5837 10.1167 30.017 9.55 29.3337 9.55C28.6504 9.55 28.0837 10.1167 28.0837 10.8V12.2333C28.0337 12.1833 27.9837 12.1167 27.9337 12.05C25.8171 9.93333 22.9837 8.75 19.9837 8.75C16.9837 8.75 14.1504 9.91667 12.0337 12.05C9.95037 14.1167 8.7837 16.8833 8.75037 19.8167C8.7337 20.5 9.28369 21.0667 9.98369 21.0833C10.0004 21.0833 10.0004 21.0833 10.0004 21.0833Z" fill="currentcolor"/>
</svg>
