<svg width="20" height="20" viewBox="0 0 20 20" fill="none" xmlns="http://www.w3.org/2000/svg">
<path d="M0.5 8.26433C0.5 12.5427 3.98107 16.0238 8.25948 16.0238C9.95138 16.0238 11.4975 15.4793 12.7713 14.5653L17.5553 19.3591C17.7789 19.5827 18.0707 19.6896 18.3818 19.6896C19.0431 19.6896 19.5 19.1937 19.5 18.5423C19.5 18.2311 19.3833 17.9491 19.1791 17.7449L14.4242 12.9608C15.4258 11.6579 16.0189 10.0341 16.0189 8.26433C16.0189 3.98592 12.5379 0.504852 8.25948 0.504852C3.98107 0.504852 0.5 3.98592 0.5 8.26433ZM2.16275 8.26433C2.16275 4.89995 4.8951 2.1676 8.25948 2.1676C11.6238 2.1676 14.3562 4.89995 14.3562 8.26433C14.3562 11.6287 11.6238 14.3611 8.25948 14.3611C4.8951 14.3611 2.16275 11.6287 2.16275 8.26433Z" fill="currentcolor"/>
</svg>
