<svg width="32" height="32" viewBox="0 0 32 32" fill="none" xmlns="http://www.w3.org/2000/svg">
<path opacity="0.3" d="M8.99352 8.35648L21.0992 4.32126C26.5298 2.51107 29.4902 5.47149 27.68 10.9021L23.6448 23.0077C20.9295 31.1536 16.4889 31.1442 13.783 23.0077L12.9722 20.5564C12.727 19.8399 12.1708 19.2836 11.4543 19.0385L8.99352 18.2183C0.857079 15.5124 0.857079 11.0623 8.99352 8.35648Z" fill="currentcolor"/>
<path d="M22.1056 11.4958L17.0144 16.587C16.6278 16.9735 15.9867 16.9735 15.6002 16.587C15.2136 16.2004 15.2136 15.5593 15.6002 15.1728L20.6913 10.0816C21.0779 9.69505 21.719 9.69505 22.1056 10.0816C22.4921 10.4682 22.4921 11.1093 22.1056 11.4958Z" fill="currentcolor"/>
</svg>
