<svg width="32" height="32" viewBox="0 0 32 32" fill="none" xmlns="http://www.w3.org/2000/svg">
<path opacity="0.3" d="M25.2534 7.22757L18.3601 3.2409C17.0401 2.4809 14.9734 2.4809 13.6534 3.2409L6.69344 7.25423C3.93344 9.1209 3.77344 9.4009 3.77344 12.3742V19.6142C3.77344 22.5876 3.93344 22.8809 6.74677 24.7742L13.6401 28.7609C14.3068 29.1476 15.1601 29.3342 16.0001 29.3342C16.8401 29.3342 17.6934 29.1476 18.3468 28.7609L25.3068 24.7476C28.0668 22.8809 28.2268 22.6009 28.2268 19.6276V12.3742C28.2268 9.4009 28.0668 9.1209 25.2534 7.22757Z" fill="currentcolor"/>
<path d="M15.9998 20.3337C18.3931 20.3337 20.3332 18.3936 20.3332 16.0003C20.3332 13.6071 18.3931 11.667 15.9998 11.667C13.6066 11.667 11.6665 13.6071 11.6665 16.0003C11.6665 18.3936 13.6066 20.3337 15.9998 20.3337Z" fill="currentcolor"/>
</svg>
