<svg width="40" height="40" viewBox="0 0 40 40" fill="none" xmlns="http://www.w3.org/2000/svg">
<path opacity="0.3" d="M30 31.4334H28.7333C27.4 31.4334 26.1333 31.95 25.2 32.8834L22.35 35.7001C21.05 36.9834 18.9334 36.9834 17.6334 35.7001L14.7833 32.8834C13.85 31.95 12.5667 31.4334 11.25 31.4334H10C7.23333 31.4334 5 29.2168 5 26.4834V8.30005C5 5.56672 7.23333 3.3501 10 3.3501H30C32.7667 3.3501 35 5.56672 35 8.30005V26.4834C35 29.2001 32.7667 31.4334 30 31.4334Z" fill="currentcolor"/>
<path d="M19.9996 17.3501C22.1443 17.3501 23.8829 15.6116 23.8829 13.4669C23.8829 11.3222 22.1443 9.5835 19.9996 9.5835C17.8549 9.5835 16.1162 11.3222 16.1162 13.4669C16.1162 15.6116 17.8549 17.3501 19.9996 17.3501Z" fill="currentcolor"/>
<path d="M24.4663 25.1003C25.8163 25.1003 26.5996 23.6003 25.8496 22.4837C24.7163 20.8003 22.5163 19.667 19.9996 19.667C17.483 19.667 15.2829 20.8003 14.1496 22.4837C13.3996 23.6003 14.183 25.1003 15.533 25.1003H24.4663Z" fill="currentcolor"/>
</svg>
