<svg width="20" height="20" viewBox="0 0 20 20" fill="none" xmlns="http://www.w3.org/2000/svg">
<path d="M10.9667 10.0005L7.20838 6.24217C7.04033 6.07411 6.9563 5.87932 6.9563 5.65779C6.9563 5.43627 7.04033 5.24147 7.20838 5.07342C7.37644 4.90536 7.57123 4.82133 7.79276 4.82133C8.01428 4.82133 8.21166 4.90794 8.38488 5.08116L12.7313 9.42759C12.8077 9.51009 12.865 9.59946 12.9032 9.69571C12.9414 9.79196 12.9605 9.89509 12.9605 10.0051C12.9605 10.1151 12.9414 10.2182 12.9032 10.3145C12.865 10.4107 12.8077 10.497 12.7313 10.5734L8.38488 14.9198C8.21166 15.0931 8.0181 15.1759 7.80422 15.1682C7.59033 15.1606 7.39935 15.0727 7.2313 14.9047C7.06324 14.7366 6.97922 14.5418 6.97922 14.3203C6.97922 14.0988 7.06324 13.904 7.2313 13.7359L10.9667 10.0005Z" fill="currentcolor"/>
</svg>
