<svg width="28" height="40" viewBox="0 0 28 40" fill="none" xmlns="http://www.w3.org/2000/svg">
<path d="M24.207 0H21.5396C19.1962 0 17.3189 0.520756 15.9219 1.53665C14.5244 2.55682 13.3245 4.28987 12.3222 6.73145L9.35822 14.0604H6.67634C5.43421 14.0604 4.46014 14.3251 3.76864 14.8629C3.06306 15.4135 2.72415 16.1605 2.72415 17.1337C2.72415 18.4911 3.7123 19.1698 5.70227 19.1698H7.28331L0.606977 35.5693L0.493866 35.851C0.155376 36.7431 0 37.392 0 37.8017C0 38.4207 0.225804 38.9457 0.705581 39.3682C1.1717 39.7908 1.75008 40 2.42792 40C3.99445 40 5.2084 38.9286 6.08344 36.7858L13.24 19.1698H17.5447C18.801 19.1698 19.775 18.9008 20.4665 18.3758C21.1584 17.8422 21.511 17.0953 21.511 16.1477C21.511 14.7519 20.5233 14.0604 18.5329 14.0604H15.3008L17.5025 8.66502C18.0249 7.41008 18.6601 6.50521 19.4079 5.98446C20.1703 5.4509 21.2007 5.18195 22.5132 5.18195H23.2193C24.4755 5.18195 25.4491 4.91307 26.141 4.36244C26.8466 3.8118 27.1996 3.04773 27.1996 2.06171C27.1996 0.691528 26.1974 0 24.207 0Z" fill="currentcolor"/>
</svg>
